/* XPM */
static char *_00c053d54a8497dce420b96ef75eb6dIrKX5h9l7OkmtpbQ[] = {
/* columns rows colors chars-per-pixel */
"40 70 242 2 ",
"   c None",
".  c #050202",
"X  c #0B0202",
"o  c #0E0A01",
"O  c #0A070A",
"+  c #130202",
"@  c #1B0303",
"#  c #1C0B02",
"$  c #13040A",
"%  c #1B040A",
"&  c #130B0C",
"*  c #1D0B0E",
"=  c #150D03",
"-  c #1C140E",
";  c #1B180B",
":  c #1C0C11",
">  c #150911",
",  c #0F1010",
"<  c #1D1314",
"1  c #1B1911",
"2  c #1E1B1A",
"3  c #151618",
"4  c #0E120D",
"5  c #230203",
"6  c #24040A",
"7  c #2C060D",
"8  c #230C0C",
"9  c #2D0B0B",
"0  c #2C0504",
"q  c #33050C",
"w  c #310A0B",
"e  c #3B080C",
"r  c #24120E",
"t  c #2A130E",
"y  c #29170A",
"u  c #36130D",
"i  c #240D11",
"p  c #280E16",
"a  c #350C13",
"s  c #3E0E16",
"d  c #231314",
"f  c #2A1312",
"g  c #2E1B15",
"h  c #241619",
"j  c #2A141C",
"k  c #2D1A1D",
"l  c #251819",
"z  c #311414",
"x  c #341812",
"c  c #33151B",
"v  c #39141D",
"b  c #351A1C",
"n  c #3B1B1C",
"m  c #3D1C17",
"M  c #2C2216",
"N  c #3C211E",
"B  c #31271B",
"V  c #37250D",
"C  c #2D1D21",
"Z  c #271721",
"A  c #391621",
"S  c #321D23",
"D  c #3A1C23",
"F  c #371E2A",
"G  c #3C1D2A",
"H  c #371721",
"J  c #2B2324",
"K  c #2D2B2B",
"L  c #292524",
"P  c #342125",
"I  c #3C2223",
"U  c #35212A",
"Y  c #3A222B",
"T  c #332B2D",
"R  c #3C2A2E",
"E  c #342F23",
"W  c #33312F",
"Q  c #3C2433",
"!  c #3C2C32",
"~  c #2F3133",
"^  c #383838",
"/  c #292D31",
"(  c #43090B",
")  c #480C14",
"_  c #570D13",
"`  c #451913",
"'  c #421C1D",
"]  c #481616",
"[  c #54131B",
"{  c #5A131B",
"}  c #530C0F",
"|  c #68151B",
" . c #70171D",
".. c #43211D",
"X. c #49241B",
"o. c #51231D",
"O. c #421D22",
"+. c #451D2B",
"@. c #5C1925",
"#. c #431E35",
"$. c #631A24",
"%. c #6D1E2A",
"&. c #651B27",
"*. c #741E2B",
"=. c #7A1D29",
"-. c #751D27",
";. c #432322",
":. c #4B2424",
">. c #42242C",
",. c #432A2A",
"<. c #4C2D2B",
"1. c #4B2824",
"2. c #532A25",
"3. c #57262A",
"4. c #413325",
"5. c #44322D",
"6. c #4C3A29",
"7. c #4A342A",
"8. c #54322D",
"9. c #5B322B",
"0. c #422231",
"q. c #442A31",
"w. c #4B2E34",
"e. c #592F33",
"r. c #4A3232",
"t. c #403534",
"y. c #543433",
"u. c #533C35",
"i. c #5C3834",
"p. c #5B3439",
"a. c #5C3C3B",
"s. c #5A3535",
"d. c #673C2F",
"f. c #692836",
"g. c #722333",
"h. c #782839",
"j. c #633633",
"k. c #623A35",
"l. c #693B32",
"z. c #643539",
"x. c #643B3B",
"c. c #6B3D3C",
"v. c #773939",
"b. c #77212A",
"n. c #44433C",
"m. c #594436",
"M. c #64413C",
"N. c #6C433C",
"B. c #69483B",
"V. c #73433C",
"C. c #79463B",
"Z. c #76493E",
"A. c #7B4636",
"S. c #79583E",
"D. c #693D42",
"F. c #474746",
"G. c #5A4341",
"H. c #53464A",
"J. c #56484B",
"K. c #4F504F",
"L. c #50554F",
"P. c #5D4E53",
"I. c #535E5B",
"U. c #5D5D5A",
"Y. c #545752",
"T. c #644443",
"R. c #6C4443",
"E. c #644A45",
"W. c #6D4A46",
"Q. c #6A4949",
"!. c #724442",
"~. c #7A4241",
"^. c #744A42",
"/. c #7A4A42",
"(. c #75474A",
"). c #6B5349",
"_. c #7B544B",
"`. c #785B45",
"'. c #645353",
"]. c #7C5953",
"[. c #5E625E",
"{. c #54625D",
"}. c #776958",
"|. c #74654E",
" X c #525D60",
".X c #596661",
"XX c #666968",
"oX c #716663",
"OX c #831E2D",
"+X c #86232C",
"@X c #862332",
"#X c #8B2939",
"$X c #932633",
"%X c #9B2D3B",
"&X c #952C36",
"*X c #91303B",
"=X c #92212E",
"-X c #A22F3A",
";X c #9C3649",
":X c #8C3141",
">X c #AC3543",
",X c #A83947",
"<X c #B23B4B",
"1X c #B73C48",
"2X c #B53852",
"3X c #AC3A52",
"4X c #88574B",
"5X c #805E50",
"6X c #9C4057",
"7X c #A44556",
"8X c #B34151",
"9X c #9C6358",
"0X c #80745F",
"qX c #87685A",
"wX c #A1685A",
"eX c #866562",
"rX c #98726A",
"tX c #9C8674",
"yX c #9C8663",
"uX c #A28B6A",
"iX c #AD9A7A",
"pX c #AA8E6D",
"aX c #AA9988",
"sX c #B09881",
"dX c #CCB091",
"fX c #DBB6AA",
"gX c #CEB1A9",
"hX c #E9BAAC",
"jX c #E7BCB7",
"kX c #F0BEB6",
"lX c #EBCC9A",
"zX c #E4C699",
"xX c #F1D39D",
"cX c #DCCAA9",
"vX c #DFCEB3",
"bX c #EAD3A6",
"nX c #F2D3A5",
"mX c #F8DDAB",
"MX c #F5D7A9",
"NX c #EBD7B7",
"BX c #F0D7B1",
"VX c #F9E1B0",
/* pixels */
"                              n.M B B M E                                       ",
"                            ; sXbXmXMXxXBXX ,                                   ",
"                          ; cXVXxXmXiXm.BXbXNX#                                 ",
"                        o NXlXlXnXyX|.B.nXMXzXNXo [.                            ",
"                        X cXxXMXpXV 6.bXMXzXuX# , XX                            ",
"                      . X vXMXVXpX8 6.mXlXsX@ gXX                               ",
"                    F.}.0X}.BXdX`.|.rXdXdXm.].jX+ XX                            ",
"                  I.X BXdX+ dXS.E.iXtXm.6.qXkXjX+                               ",
"                    U.B.uX).4.m.u.4.7.E.rXhXhXfXX                               ",
"                      X tXtXX }.g X x eXhXhXhXfXX                               ",
"                        @ eXt + d @ i D.j.gXgX$                                 ",
"                      + 3.e 3.w 8.v.8.9 ;.M.aXK                                 ",
"                      6 v.&.s # 2.v.v.9XfXo 1                                   ",
"                  {.+ 6X3.5 ( %.q p.9XtXX                                       ",
"                  U.@ z.5 3.%._ &.5 + X . . & X                                 ",
"                      5 7 5 ] ) @.:X;X;X*X+X7Xf.d U.                            ",
"                  U.$ @.f.a @ X ( } | $X<X%X+X,Xg.v .X                          ",
"                  U.@ g.h.[ q @ 9 0 ( -.%X>X&X=.%.a                             ",
"                  U.@ g.OX&X@X%.e w 6 ) @.=.*X .| ) t.                          ",
"                  U.+ %.%X>X<X#X*.( w 6 v ) %.$._ @.8                           ",
"                  F.q *X<X>X%X$X8X ._ i X @ 7 w q 3.5                           ",
"                [.p #X1X1X>X$X>X-X-.$.8 * 8 * X + 6 k                           ",
"                XXG 7X1X>X=X<X<X$X[ a * j @ G.@ P i oX                          ",
"                '.) g.@XOX,X3X#X[ ` 7 $ d B./.k.@ r.d                           ",
"                +.2X2X2X;X#X*.@.i + 8 e.z.V.N.;.+ r.r                           ",
"                s =.OX@X@X=.[ 7 j b ;.V.~.~.W.I + u.g                           ",
"                7 *.*.{ } ) @ X 5.c.c.v.C.c.1.% . 4.y                           ",
"                6 $.[ 9 8 8 b d B N.v.l.9.<.8 f i P =                           ",
"              XX+ 7 @ L.F., S c & w.e.;.8 d j >.Q : ^                           ",
"                L.K.Y.    O Z j Z : : d k k Y >.h O                             ",
"                          . ! Y 0.% X h Y U U Y $ X                             ",
"                          & R P >.O & Y U Y + X '.b                             ",
"                          8 R 2 . O . X O : M.Z.^.x                             ",
"                        t _.5 d P $ g R.!.c.!.!.b &                             ",
"                        @ 9XA.t k 0.k % v n >.D % X                             ",
"                        @ 9XA.r U #.h O & X X + c q.T                           ",
"                        5 /.0 l $ Q k k G.^.W.D b a.d                           ",
"                      g 4X~.@ j @ ! q.8 @ !.(.v I i.-                           ",
"                      @ wXo.i ,.z l i - X ..W.b I j.-                           ",
"                      @ ^.5 D i.2.$ $ < * 8 ;.<.n j.-                           ",
"                      @ y.@ b k.X.X < U Y U @ a.' j.1                           ",
"                      @ Q.@ n 9.;.d : G 0.D 9 M.' z.r                           ",
"                    oXu y.@ I @ f x.m.8 Y @ N./.] z.8                           ",
"                  .Xt _.% U E.r j c.i.r + m.V.Z.' p.d                           ",
"                  {.@ 9X$ F T.r C c.M.h X O.V.Z...>.$                           ",
"                  I.@ 5X+ D W.f k x.x.h X n V.Z...D y.J K                       ",
"                   XX ).X U Q.f p R.x.h X n !.^.;.D x.f 2                       ",
"                  I.+ T.X P @ r D c.c.l X n !.^.O.D x.f 2                       ",
"                  I.X T.X P + r D x.x.h X b N.!.O.D x.8 2                       ",
"                  m.X.N 8 r.X l D c.x.h X n !.^.;.D x.d 2                       ",
"                [.` 5X+ I T.+ C H x.x.d X I !.!.O.D k.8 <                       ",
"                [.` _.+ N T.+ C >.c.x.d X D V.V.' D k.u B                       ",
"                [.m ).+ n T.+ < z.C.k.< X n k.V.n D k.^.u.L                     ",
"                [.b E.+ n T.+ d c.A.x.d X c 2.N.n G k.C.a.K                     ",
"                m l.@ H N.B.+ j x.!.x.D S X n (.!.1.x.D.a./                     ",
"                m 9.+ n N.B.+ k c.!.x.D S X D (.N.8.;.x.i.T                     ",
"                x 8.+ n V.R.+ k c.!.x.D S X D (.N.<.N a.N.5.K.                  ",
"                x <.+ m V.R.+ k c.!.c.I S X D 1.R.<.n y.V.8.W                   ",
"            XX'...I @ 2.V.y.8 c c.~.x.P S X D ' N.<.D x.C.8.W                   ",
"            - u d.: N /.M.+ P v c.v.x.D S X D O.R.1.D 2.l.8.~                   ",
"            ; u d.: I i.E.+ P H D.V.x.P S X D n R.j.1.n :.y.~                   ",
"            ; t i.* D 1.G.X S G p.^.x.P P X P v N.N.1.b :.y.W                   ",
"            3 c p.* S D R X C q.n N.x.P P X U v N.V.X.n o.V.5.X                 ",
"            4 z ,.: C k C X C Y O.D D D S X Q A N.N.<.n o.v.r.X                 ",
"            3 $ O . X & & . X $ O . . . O X Y H W.M.,.c 1.!.,..                 ",
"                        & P P :             . X @ + X O . X O ,                 ",
"                        X ! & .             & U S S * Y.                        ",
"                        + P S F <           X U G +.F < L ^                     ",
"                        X P >.D S 2 ^       X S G G F S C J n.                  ",
"                        ^ H.J.P.P.K F.      T H.J.J.H.H.P.F.K.                  "
};
