/* XPM */
static char * example_xpm[] = {
"32 32 3 1",
"  c None",   // Şeffaf alan
". c #FFFFFF", // Beyaz
"X c #FFFFFF", // Siyah
"                                ",
"                                ",
"                                ",
"            XXXX                ",
"         XX      XX             ",
"       XX          XX           ",
"      XX            XX          ",
"      XX            XX          ",
"      XX            XX          ",
"       XX          XX           ",
"         XX      XX             ",
"            XXXX                ",
"                                ",
"                                ",
"                                ",
"                                ",
"                                ",
"                                ",
"                                ",
"                                ",
"                                ",
"                                ",
"                                ",
"                                ",
"                                ",
"                                ",
"                                ",
"                                ",
"                                ",
"                                ",
"                                ",
"                                ",
"                                ",
"                                "
};
