/* XPM */
static char *result[] = {
/* columns rows colors chars-per-pixel */
"70 58 6 1 ",
"  c #000000",
". c #0070EC",
"X c #00E8D8",
"o c #FCD8A8",
"O c gray99",
"+ c None",
/* pixels */
"++++++++++++++++++++++++++++       +++++++++++++++++++++++++++++++++++",
"++++++++++++++++++++++++++++       +++++++++++++++++++++++++++++++++++",
"++++++++++++++++++++++++++++       +++++++++++++++++++++++++++++++++++",
"+++++++++++++++++++++++++   XXXXX        +++++++++++++++++++++++++++++",
"+++++++++++++++++++++++++   XXXXX        +++++++++++++++++++++++++++++",
"+++++++++++++++++++++++++   XXXXX        +++++++++++++++++++++++++++++",
"++++++++++++++++++++++   XXXXX   ........  +++++++++++++++++++++++++++",
"++++++++++++++++++++++   XXXXX   ........  +++++++++++++++++++++++++++",
"++++++++++++++++++++          .............   ++++++++++++++++++++++++",
"++++++++++++++++++++          .............   ++++++++++++++++++++++++",
"++++++++++++++++++++          .............   ++++++++++++++++++++++++",
"+++++++++++++++++   ..XXXXXX  .............   ++++++++++++++++++++++++",
"+++++++++++++++++   ..XXXXXX  .............   ++++++++++++++++++++++++",
"+++++++++++++++++   ..      ...............XXX        ++++++++++++++++",
"+++++++++++++++++   ..      ...............XXX        ++++++++++++++++",
"+++++++++++++++++   ..      ...............XXX        ++++++++++++++++",
"+++++++++++++++++   OO......OOOOOOOooo.....XXX   XXXXX     +++++++++++",
"+++++++++++++++++   OO......OOOOOOOooo.....XXX   XXXXX     +++++++++++",
"+++++++++++++++++   OO......OOOOOOOooo.....XXX   XXXXX     +++++++++++",
"+++++++++++++++++   OO   ooo     OOOOOooo..XXX   XXXXX  ...   ++++++++",
"+++++++++++++++++   OO   ooo     OOOOOooo..XXX   XXXXX  ...   ++++++++",
"+++++++        ++   OO   ooo     OOOOOooo..   XXXXX   ........  ++++++",
"+++++++        ++   OO   ooo     OOOOOooo..   XXXXX   ........  ++++++",
"+++++++        ++   OO   ooo     OOOOOooo..   XXXXX   ........  ++++++",
"++++   ........     ooOOOoooOOOOOOOoooooo..   XXXXX   ..........   +++",
"++++   ........     ooOOOoooOOOOOOOoooooo..   XXXXX   ..........   +++",
"++++   ........     ooOOOoooOOOOOOOoooooo..   XXXXX   ..........   +++",
"++++   ........  +++  ooo          ooo...  XXXXXX  +++  ........   +++",
"++++   ........  +++  ooo          ooo...  XXXXXX  +++  ........   +++",
"++++   ........     XX   ooooooooooooo   XXXXXXXX  +++  ........   +++",
"++++   ........     XX   ooooooooooooo   XXXXXXXX  +++  ........   +++",
"++++   ........     XX   ooooooooooooo   XXXXXXXX  +++  ........   +++",
"+++++++  ........XXXXXXXX             XXXXXXXX...  +++++        ++++++",
"+++++++  ........XXXXXXXX             XXXXXXXX...  +++++        ++++++",
"+++++++++   ........XXXXX   XXXXXXXXXXXXX........  +++     +++++++++++",
"+++++++++   ........XXXXX   XXXXXXXXXXXXX........  +++     +++++++++++",
"+++++++++   ........XXXXX   XXXXXXXXXXXXX........  +++     +++++++++++",
"++++++++++++   .....XX   +++  XXX................     .....   ++++++++",
"++++++++++++   .....XX   +++  XXX................     .....   ++++++++",
"++++++++++++   .....XX   +++  XXX................     .....   ++++++++",
"+++++++++++++++       ++++++++   XXXXXXXX.....     ...........  ++++++",
"+++++++++++++++       ++++++++   XXXXXXXX.....     ...........  ++++++",
"++++++++++++++++++++++++++++  XXXXXXXXXXX..      XX.............   +++",
"++++++++++++++++++++++++++++  XXXXXXXXXXX..      XX.............   +++",
"++++++++++++++++++++++++++++  XXXXXXXXXXX..      XX.............   +++",
"+++++++++++++++++++++++++   ..XXXXXXXX     XXXXXXXX.....   .....   +++",
"+++++++++++++++++++++++++   ..XXXXXXXX     XXXXXXXX.....   .....   +++",
"+++++++++++++++++++++++++   ..XXXXXXXX     XXXXXXXX.....   .....   +++",
"+++++++++++++++++++++++++   ..........   ++   XXXXX...          ++++++",
"+++++++++++++++++++++++++   ..........   ++   XXXXX...          ++++++",
"++++++++++++++++++++++        ........   +++++        ++++++++++++++++",
"++++++++++++++++++++++        ........   +++++        ++++++++++++++++",
"++++++++++++++++++++++        ........   +++++        ++++++++++++++++",
"++++++++++++++++++++  ...................  +++++++++++++++++++++++++++",
"++++++++++++++++++++  ...................  +++++++++++++++++++++++++++",
"++++++++++++++++++++                       +++++++++++++++++++++++++++",
"++++++++++++++++++++                       +++++++++++++++++++++++++++",
"++++++++++++++++++++                       +++++++++++++++++++++++++++"
};
