/* XPM */
static char *f461fe5a36d842c1bbfe1e88a6613961vZzjywRQrAaxhidw[] = {
/* columns rows colors chars-per-pixel */
"70 58 6 1 ",
"  c None",
". c black",
"X c #0070EC",
"o c #00E8D8",
"O c #FCD8A8",
"+ c gray99",
/* pixels */
"                                                                      ",
"                                                                      ",
"                                                                      ",
"                                                                      ",
"                                ......                                ",
"                                ......                                ",
"                           .......oooo...                             ",
"                           .......oooo...                             ",
"                         ..XXXXXXX..ooooo..                           ",
"                         ..XXXXXXX..ooooo..                           ",
"                         ..XXXXXXX..ooooo..                           ",
"                       ..XXXXXXXXXXX.........                         ",
"                       ..XXXXXXXXXXX.........                         ",
"                       ..XXXXXXXXXXX..oooooXX..                       ",
"                       ..XXXXXXXXXXX..oooooXX..                       ",
"                    ...ooXXXXXXXXXXXXX.....XX..                       ",
"                    ...ooXXXXXXXXXXXXX.....XX..                       ",
"                .......ooXXXXOOO++++++XXXXX++..                       ",
"                .......ooXXXXOOO++++++XXXXX++..                       ",
"                .......ooXXXXOOO++++++XXXXX++..                       ",
"           .....oooo...ooXXOO+++++....OOO..++..                       ",
"           .....oooo...ooXXOO+++++....OOO..++..                       ",
"         ..oooooooooooo..XXOO+++++....OOO..++..       .........       ",
"         ..oooooooooooo..XXOO+++++....OOO..++..       .........       ",
"       ..XXoooooooooooo..XXOOOOO++++++OOO++OO.........XXXXXXX.......  ",
"       ..XXoooooooooooo..XXOOOOO++++++OOO++OO.........XXXXXXX.......  ",
"       ..XXXXXXXoo..ooooo..XXOOO.........OO....ooooo..XXooooooo..ooo..",
"       ..XXXXXXXoo..ooooo..XXOOO.........OO....ooooo..XXooooooo..ooo..",
"       ..XXXXXXXoo..ooooo..XXOOO.........OO....ooooo..XXooooooo..ooo..",
"       ..XXXXXXX..XX...oooo..OOOOOOOOOOOO..ooooooooo..XXXXXXXXX..XXX..",
"       ..XXXXXXX..XX...oooo..OOOOOOOOOOOO..ooooooooo..XXXXXXXXX..XXX..",
"         ..XXXXX..XXXXX..oooo............ooooooooooo..XXXXXXX.......  ",
"         ..XXXXX..XXXXX..oooo............ooooooooooo..XXXXXXX.......  ",
"           ...XXXXXXXXX..oooooooooooooooo...........  .........       ",
"           ...XXXXXXXXX..oooooooooooooooo...........  .........       ",
"              ..XXXX...ooooooooooooooo...                             ",
"              ..XXXX...ooooooooooooooo...                             ",
"              ..XXXX...ooooooooooooooo...                             ",
"                ....XXXXXooooooooooo..                                ",
"                ....XXXXXooooooooooo..                                ",
"                  ..XXXXXXXXXXXXXXXX..                                ",
"                  ..XXXXXXXXXXXXXXXX..                                ",
"                ..ooXXXXXXXXXXXXXXoo..                                ",
"                ..ooXXXXXXXXXXXXXXoo..                                ",
"              ..oooooooXXXXXXXXXoooooo...                             ",
"              ..oooooooXXXXXXXXXoooooo...                             ",
"              ..oooooooXXXXXXXXXoooooo...                             ",
"           ...XXooooooooo....oooooooXXXXX..                           ",
"           ...XXooooooooo....oooooooXXXXX..                           ",
"       ....XXXXXXXooooo..    ...XXXXXXXXX..                           ",
"       ....XXXXXXXooooo..    ...XXXXXXXXX..                           ",
"  .....XXXXXXXXXXXXX...      ...XXXXXX.......                         ",
"  .....XXXXXXXXXXXXX...      ...XXXXXX.......                         ",
"..XXXXXXXXXXXXXXXX..       ..XXXXXXXXXXXXXXXX..                       ",
"..XXXXXXXXXXXXXXXX..       ..XXXXXXXXXXXXXXXX..                       ",
"..XXXXXXXXXXXXXXXX..       ..XXXXXXXXXXXXXXXX..                       ",
"....................       ....................                       ",
"....................       ....................                       "
};
