/* XPM */
static char *result[] = {
/* columns rows colors chars-per-pixel */
"70 58 6 1 ",
"  c #000000",
". c #0070EC",
"X c #00E8D8",
"o c #FCD8A8",
"O c gray99",
"+ c None",
/* pixels */
"+++++++++++++++++++++++++++        +++++++++++++++++++++++++++++++++++",
"+++++++++++++++++++++++++++        +++++++++++++++++++++++++++++++++++",
"+++++++++++++++++++++++++++        +++++++++++++++++++++++++++++++++++",
"++++++++++++++++++++++++   XXXXX        ++++++++++++++++++++++++++++++",
"++++++++++++++++++++++++   XXXXX        ++++++++++++++++++++++++++++++",
"++++++++++++++++++++++++   XXXXX        ++++++++++++++++++++++++++++++",
"++++++++++++++++++++++  XXXXXX  ........   +++++++++++++++++++++++++++",
"++++++++++++++++++++++  XXXXXX  ........   +++++++++++++++++++++++++++",
"+++++++++++++++++++           .............  +++++++++++++++++++++++++",
"+++++++++++++++++++           .............  +++++++++++++++++++++++++",
"+++++++++++++++++++           .............  +++++++++++++++++++++++++",
"+++++++++++++++++  ...XXXXX   .............  +++++++++++++++++++++++++",
"+++++++++++++++++  ...XXXXX   .............  +++++++++++++++++++++++++",
"+++++++++++++++++  ...     ................XX   ++++++++++++++++++++++",
"+++++++++++++++++  ...     ................XX   ++++++++++++++++++++++",
"+++++++++++++++++  ...     ................XX   ++++++++++++++++++++++",
"+++++++++++++++++  OOO.....OOOOOOOOooo.....XX   ++++++++++++++++++++++",
"+++++++++++++++++  OOO.....OOOOOOOOooo.....XX   ++++++++++++++++++++++",
"+++++++++++++++++  OOO.....OOOOOOOOooo.....XX   ++++++++++++++++++++++",
"+++++++++++++++++  OOO  ooo     OOOOOOoo...XX        +++++++++++++++++",
"+++++++++++++++++  OOO  ooo     OOOOOOoo...XX        +++++++++++++++++",
"+++++++++++++++++  OOO  ooo     OOOOOOoo...  XXXXXXXX      +++++++++++",
"+++++++++++++++++  OOO  ooo     OOOOOOoo...  XXXXXXXX      +++++++++++",
"+++++++++++++++++  OOO  ooo     OOOOOOoo...  XXXXXXXX      +++++++++++",
"+++++++++++++++++  oooOOoooOOOOOOOOooooo   XXXXXXXX........  +++++++++",
"+++++++++++++++++  oooOOoooOOOOOOOOooooo   XXXXXXXX........  +++++++++",
"+++++++++++++++++  oooOOoooOOOOOOOOooooo   XXXXXXXX........  +++++++++",
"+++++++++++++++++++   oo           oooXXXXX  XXXXXX..........   ++++++",
"+++++++++++++++++++   oo           oooXXXXX  XXXXXX..........   ++++++",
"+++++++++++++++++       oooooooooooXXXXXXXXXX        ........   ++++++",
"+++++++++++++++++       oooooooooooXXXXXXXXXX        ........   ++++++",
"+++++++++++++++++       oooooooooooXXXXXXXXXX        ........   ++++++",
"++++++++++++++   .......        XXXXXXXXXXXXX   +++  ........   ++++++",
"++++++++++++++   .......        XXXXXXXXXXXXX   +++  ........   ++++++",
"++++++++++++++   ...............XXXXXXXX   XX...   ++        +++++++++",
"++++++++++++++   ...............XXXXXXXX   XX...   ++        +++++++++",
"++++++++++++++   ...............XXXXXXXX   XX...   ++        +++++++++",
"++++++++++++++   ...............XXXXXX  XXX.....        .....   ++++++",
"++++++++++++++   ...............XXXXXX  XXX.....        .....   ++++++",
"++++++++++++++   ...............XXXXXX  XXX.....        .....   ++++++",
"+++++++++++++++++                     ..........XXX  ...........  ++++",
"+++++++++++++++++                     ..........XXX  ...........  ++++",
"++++++++++++++++++++++++   XXXXXXXX..........XXXXXXXX.............   +",
"++++++++++++++++++++++++   XXXXXXXX..........XXXXXXXX.............   +",
"++++++++++++++++++++++++   XXXXXXXX..........XXXXXXXX.............   +",
"++++++++++++++++++++++  ......XXXXXXXX       XXXXXXXX......  .....   +",
"++++++++++++++++++++++  ......XXXXXXXX       XXXXXXXX......  .....   +",
"++++++++++++++++++++++  ......XXXXXXXX       XXXXXXXX......  .....   +",
"++++++++++++++++++++++  ...........   +++++++   XXX.....          ++++",
"++++++++++++++++++++++  ...........   +++++++   XXX.....          ++++",
"+++++++++++++++++++        ........   ++++++++++        ++++++++++++++",
"+++++++++++++++++++        ........   ++++++++++        ++++++++++++++",
"+++++++++++++++++++        ........   ++++++++++        ++++++++++++++",
"+++++++++++++++++  ...................  ++++++++++++++++++++++++++++++",
"+++++++++++++++++  ...................  ++++++++++++++++++++++++++++++",
"+++++++++++++++++                       ++++++++++++++++++++++++++++++",
"+++++++++++++++++                       ++++++++++++++++++++++++++++++",
"+++++++++++++++++                       ++++++++++++++++++++++++++++++"
};
