/* XPM */
static char *ebf2c22c87374fbed4e920873ae39588HWi2JfcHjwrpfMOw[] = {
/* columns rows colors chars-per-pixel */
"70 58 6 1 ",
"  c None",
". c #000000",
"X c #0070EC",
"o c #00E8D8",
"O c #FCD8A8",
"+ c gray99",
/* pixels */
"                                   .......                            ",
"                                   .......                            ",
"                                   .......                            ",
"                             ........ooooo...                         ",
"                             ........ooooo...                         ",
"                             ........ooooo...                         ",
"                           ..XXXXXXXX...ooooo...                      ",
"                           ..XXXXXXXX...ooooo...                      ",
"                        ...XXXXXXXXXXXXX..........                    ",
"                        ...XXXXXXXXXXXXX..........                    ",
"                        ...XXXXXXXXXXXXX..........                    ",
"                        ...XXXXXXXXXXXXX..ooooooXX...                 ",
"                        ...XXXXXXXXXXXXX..ooooooXX...                 ",
"                ........oooXXXXXXXXXXXXXXX......XX...                 ",
"                ........oooXXXXXXXXXXXXXXX......XX...                 ",
"                ........oooXXXXXXXXXXXXXXX......XX...                 ",
"           .....ooooo...oooXXXXXOOO+++++++XXXXXX++...                 ",
"           .....ooooo...oooXXXXXOOO+++++++XXXXXX++...                 ",
"           .....ooooo...oooXXXXXOOO+++++++XXXXXX++...                 ",
"        ...XXX..ooooo...oooXXOOO+++++.....OOO...++...                 ",
"        ...XXX..ooooo...oooXXOOO+++++.....OOO...++...                 ",
"      ..XXXXXXXX...ooooo...XXOOO+++++.....OOO...++...  ........       ",
"      ..XXXXXXXX...ooooo...XXOOO+++++.....OOO...++...  ........       ",
"      ..XXXXXXXX...ooooo...XXOOO+++++.....OOO...++...  ........       ",
"   ...XXXXXXXXXX...ooooo...XXOOOOOO+++++++OOO+++OO.....XXXXXXXX...    ",
"   ...XXXXXXXXXX...ooooo...XXOOOOOO+++++++OOO+++OO.....XXXXXXXX...    ",
"   ...XXXXXXXXXX...ooooo...XXOOOOOO+++++++OOO+++OO.....XXXXXXXX...    ",
"   ...XXXXXXXX..   ..oooooo..XXXOOO..........OOO..   ..XXXXXXXX...    ",
"   ...XXXXXXXX..   ..oooooo..XXXOOO..........OOO..   ..XXXXXXXX...    ",
"   ...XXXXXXXX..   ..oooooooo...OOOOOOOOOOOOO...oo.....XXXXXXXX...    ",
"   ...XXXXXXXX..   ..oooooooo...OOOOOOOOOOOOO...oo.....XXXXXXXX...    ",
"   ...XXXXXXXX..   ..oooooooo...OOOOOOOOOOOOO...oo.....XXXXXXXX...    ",
"      ........     ..XXXoooooooo.............ooooooooXXXXXXXX..       ",
"      ........     ..XXXoooooooo.............ooooooooXXXXXXXX..       ",
"           .....   ..XXXXXXXXooooooooooooo...oooooXXXXXXXX...         ",
"           .....   ..XXXXXXXXooooooooooooo...oooooXXXXXXXX...         ",
"           .....   ..XXXXXXXXooooooooooooo...oooooXXXXXXXX...         ",
"        ...XXXXX.....XXXXXXXXXXXXXXXXooo..   ...ooXXXXX...            ",
"        ...XXXXX.....XXXXXXXXXXXXXXXXooo..   ...ooXXXXX...            ",
"        ...XXXXX.....XXXXXXXXXXXXXXXXooo..   ...ooXXXXX...            ",
"      ..XXXXXXXXXXX.....XXXXXoooooooo...        .......               ",
"      ..XXXXXXXXXXX.....XXXXXoooooooo...        .......               ",
"   ...XXXXXXXXXXXXXoo......XXooooooooooo..                            ",
"   ...XXXXXXXXXXXXXoo......XXooooooooooo..                            ",
"   ...XXXXXXXXXXXXXoo......XXooooooooooo..                            ",
"   ...XXXXX...XXXXXoooooooo.....ooooooooXX...                         ",
"   ...XXXXX...XXXXXoooooooo.....ooooooooXX...                         ",
"   ...XXXXX...XXXXXoooooooo.....ooooooooXX...                         ",
"      ..........XXXooooo...  ...XXXXXXXXXX...                         ",
"      ..........XXXooooo...  ...XXXXXXXXXX...                         ",
"                ........     ...XXXXXXXX........                      ",
"                ........     ...XXXXXXXX........                      ",
"                ........     ...XXXXXXXX........                      ",
"                           ..XXXXXXXXXXXXXXXXXXX..                    ",
"                           ..XXXXXXXXXXXXXXXXXXX..                    ",
"                           .......................                    ",
"                           .......................                    ",
"                           .......................                    "
};
