/* XPM */
static char *b0735e1ba3904de2adf501255f564caeGaBsPWw7x8OFSfEL[] = {
/* columns rows colors chars-per-pixel */
"70 58 6 1 ",
"  c None",
". c #000000",
"X c #0070EC",
"o c #00E8D8",
"O c #FCD8A8",
"+ c gray99",
/* pixels */
"                                    .......                           ",
"                                    .......                           ",
"                               .......ooooo...                        ",
"                               .......ooooo...                        ",
"                             ..XXXXXXX...ooooo..                      ",
"                             ..XXXXXXX...ooooo..                      ",
"                             ..XXXXXXX...ooooo..                      ",
"                          ...XXXXXXXXXXXX..........                   ",
"                          ...XXXXXXXXXXXX..........                   ",
"                          ...XXXXXXXXXXXX..oooooXXX..                 ",
"                          ...XXXXXXXXXXXX..oooooXXX..                 ",
"                          ...XXXXXXXXXXXX..oooooXXX..                 ",
"                        ..oooXXXXXXXXXXXXXX.....XXX..                 ",
"                        ..oooXXXXXXXXXXXXXX.....XXX..                 ",
"                        ..oooXXXXOOO+++++++XXXXX+++..                 ",
"                        ..oooXXXXOOO+++++++XXXXX+++..                 ",
"                        ..oooXXXXOOO+++++++XXXXX+++..                 ",
"                     .....oooXXOO+++++.....OOO..+++..                 ",
"                     .....oooXXOO+++++.....OOO..+++..                 ",
"                   ..ooooo...XXOO+++++.....OOO..+++..                 ",
"                   ..ooooo...XXOO+++++.....OOO..+++..                 ",
"                ...ooooooo...XXOOOOO+++++++OOO++OOO..                 ",
"                ...ooooooo...XXOOOOO+++++++OOO++OOO..                 ",
"                ...ooooooo...XXOOOOO+++++++OOO++OOO..                 ",
"              ..ooooooooooooo..XXOOO..........OO...                   ",
"              ..ooooooooooooo..XXOOO..........OO...                   ",
"              ..oooooooo..ooooo..OOOOOOOOOOOOO..                      ",
"              ..oooooooo..ooooo..OOOOOOOOOOOOO..                      ",
"              ..oooooooo..ooooo..OOOOOOOOOOOOO..                      ",
"                ...XXXXXXX...oooo...............                      ",
"                ...XXXXXXX...oooo...............                      ",
"                ...XXXXXXXXXX....oooooooooo...XX...                   ",
"                ...XXXXXXXXXX....oooooooooo...XX...                   ",
"                ...XXXXXXXXXX....oooooooooo...XX...                   ",
"                   ..XXXXX...XXXX...ooooo..XXXXX...                   ",
"                   ..XXXXX...XXXX...ooooo..XXXXX...                   ",
"                     ...XXXXXXXXX...XX..........                      ",
"                     ...XXXXXXXXX...XX..........                      ",
"                        ..XXXXX.X...XX..........                      ",
"                        ..XXXXX..XXX..ooo..                           ",
"                        ..XXXXX..XXX..ooo..                           ",
"                          .....ooooo..ooo..                           ",
"                          .....ooooo..ooo..                           ",
"                        .....ooooooo.....                             ",
"                        .....ooooooo.....                             ",
"                        .....ooooooo.....                             ",
"                     ...XXXXXXXXXXXX..                                ",
"                     ...XXXXXXXXXXXX..                                ",
"                   ..XXXXXXXXXXXX...                                  ",
"                   ..XXXXXXXXXXXX...                                  ",
"                   ..XXXXXXXXXXXX...                                  ",
"                   ..XXXXXXXX.......                                  ",
"                   ..XXXXXXXX.......                                  ",
"                     ...XXXXXXXXXXXX..                                ",
"                     ...XXXXXXXXXXXX..                                ",
"                     ...XXXXXXXXXXXX..                                ",
"                        ..............                                ",
"                        ..............                                "
};
