/* XPM */
static char *a2642f6ce51146088044203aa86776e9YS49RorrXDjuqY6A[] = {
/* columns rows colors chars-per-pixel */
"70 58 6 1 ",
"  c None",
". c #000000",
"X c #0070EC",
"o c #00E8D8",
"O c #FCD8A8",
"+ c gray99",
/* pixels */
"                                   ......                             ",
"                                   ......                             ",
"                  ....           ..oooo......           ....          ",
"                  ....           ..oooo......           ....          ",
"                ..XXXX..       ..oooo..XXXXXX..       ..XXXX..        ",
"                ..XXXX..       ..oooo..XXXXXX..       ..XXXX..        ",
"              ..XXXXXXXX..   ........XXXXXXXXXX..   ..XXXXXXXX..      ",
"              ..XXXXXXXX..   ........XXXXXXXXXX..   ..XXXXXXXX..      ",
"              ..XXXXXX.... ..XXoooo..XXXXXXXXXX..   ....XXXXXX..      ",
"              ..XXXXXX.... ..XXoooo..XXXXXXXXXX..   ....XXXXXX..      ",
"                ..XXXX..XX...XX....XXXXXXXXXXXXoo...XX..XXXX..        ",
"                ..XXXX..XX...XX....XXXXXXXXXXXXoo...XX..XXXX..        ",
"                  ..XXXXXXX..++XXXX++++++OOXXXXoo..XXXXXXX..          ",
"                  ..XXXXXXX..++XXXX++++++OOXXXXoo..XXXXXXX..          ",
"                    ..XXXXo..++..OO....++++OOXXoo..XXXXX..            ",
"                    ..XXXXo..++..OO....++++OOXXoo..XXXXX..            ",
"                      ..ooo..++..OO....++++OOXX..ooXXX..              ",
"                      ..ooo..++..OO....++++OOXX..ooXXX..              ",
"                        ..o..OO++OO++++++OOOOXX..ooo..                ",
"                        ..o..OO++OO++++++OOOOXX..ooo..                ",
"                          .oo..OO......OOOOXX..oooo.                  ",
"                           ..oo..........OO..oooo..                   ",
"                           ..oo..........OO..oooo..                   ",
"                           ..oooo......OO..oooooo..                   ",
"                           ..oooo......OO..oooooo..                   ",
"                             ..oooooooooooooooo..                     ",
"                             ..oooooooooooooooo..                     ",
"                             ..oooooooooooooooo..                     ",
"                             ..oooooooooooooooo..                     ",
"                          .....oooooooooooooooo..                     ",
"                          .....oooooooooooooooo..                     ",
"                        ..oooooXXXXXXXXXXXXXXXX..                     ",
"                        ..oooooXXXXXXXXXXXXXXXX..                     ",
"                      ..XXXooooooXXXXXXXXXXXXXX..                     ",
"                      ..XXXooooooXXXXXXXXXXXXXX..                     ",
"                      ..XXXXXooooooXXXXXXXXoooo..                     ",
"                      ..XXXXXooooooXXXXXXXXoooo..                     ",
"                      ..XXXXXXX........oooooooo..                     ",
"                      ..XXXXXXX........oooooooo..                     ",
"                    ..XXXXXXX..        ..oooooo..                     ",
"                    ..XXXXXXX..        ..oooooo..                     ",
"                  ..XXXXXXXXX..        ..XXoooo..                     ",
"                  ..XXXXXXXXX..        ..XXoooo..                     ",
"                  ..XXXXXXX....        ..XXXXXX..                     ",
"                  ..XXXXXXX....        ..XXXXXX..                     ",
"                    .......          ..XXXXXXXX..                     ",
"                                     ..XXXXXX..                       ",
"                                     ..XXXXXX..                       ",
"                                     ..XXXXXX..                       ",
"                                     ..XXXXXX..                       ",
"                                     ..XXXXXX..                       ",
"                                     ..XXXXXX..                       ",
"                                     ..XXXXXX..                       ",
"                                     ..XXXXXX..                       ",
"                                     ..XXXXXX..                       ",
"                                     ..XXXXXX..                       ",
"                                       ......                         ",
"                                       ......                         "
};
