/* XPM */
static char *e7efe3fb117a43ffdfeb48103e51bf4eCOllBvmxeKPmBYCX[] = {
/* columns rows colors chars-per-pixel */
"70 58 6 1 ",
"  c None",
". c #000000",
"X c #0070EC",
"o c #00E8D8",
"O c #FCD8A8",
"+ c gray99",
/* pixels */
"                             ......                                   ",
"                             ......                                   ",
"          ....           ......oooo..           ....                  ",
"          ....           ......oooo..           ....                  ",
"        ..XXXX..       ..XXXXXX..oooo..       ..XXXX..                ",
"        ..XXXX..       ..XXXXXX..oooo..       ..XXXX..                ",
"      ..XXXXXXXX..   ..XXXXXXXXXX........   ..XXXXXXXX..              ",
"      ..XXXXXXXX..   ..XXXXXXXXXX........   ..XXXXXXXX..              ",
"      ..XXXXXX....   ..XXXXXXXXXX..ooooXX.. ....XXXXXX..              ",
"      ..XXXXXX....   ..XXXXXXXXXX..ooooXX.. ....XXXXXX..              ",
"        ..XXXX..XX...ooXXXXXXXXXXXX....XX...XX..XXXX..                ",
"        ..XXXX..XX...ooXXXXXXXXXXXX....XX...XX..XXXX..                ",
"          ..XXXXXXX..ooXXXXOO++++++XXXX++..XXXXXXX..                  ",
"          ..XXXXXXX..ooXXXXOO++++++XXXX++..XXXXXXX..                  ",
"            ..XXXXX..ooXXOO++++....OO..++..oXXXX..                    ",
"            ..XXXXX..ooXXOO++++....OO..++..oXXXX..                    ",
"              ..XXXoo..XXOO++++....OO..++..ooo..                      ",
"              ..XXXoo..XXOO++++....OO..++..ooo..                      ",
"                ..ooo..XXOOOO++++++OO++OO..o..                        ",
"                ..ooo..XXOOOO++++++OO++OO..o..                        ",
"                  .oooo..XXOOOO......OO..oo.                          ",
"                   ..oooo..OO..........oo..                           ",
"                   ..oooo..OO..........oo..                           ",
"                   ..oooooo..OO......oooo..                           ",
"                   ..oooooo..OO......oooo..                           ",
"                     ..oooooooooooooooo..                             ",
"                     ..oooooooooooooooo..                             ",
"                     ..oooooooooooooooo..                             ",
"                     ..oooooooooooooooo..                             ",
"                     ..oooooooooooooooo.....                          ",
"                     ..oooooooooooooooo.....                          ",
"                     ..XXXXXXXXXXXXXXXXooooo..                        ",
"                     ..XXXXXXXXXXXXXXXXooooo..                        ",
"                     ..XXXXXXXXXXXXXXooooooXXX..                      ",
"                     ..XXXXXXXXXXXXXXooooooXXX..                      ",
"                     ..ooooXXXXXXXXooooooXXXXX..                      ",
"                     ..ooooXXXXXXXXooooooXXXXX..                      ",
"                     ..oooooooo........XXXXXXX..                      ",
"                     ..oooooooo........XXXXXXX..                      ",
"                     ..oooooo..        ..XXXXXXX..                    ",
"                     ..oooooo..        ..XXXXXXX..                    ",
"                     ..ooooXX..        ..XXXXXXXXX..                  ",
"                     ..ooooXX..        ..XXXXXXXXX..                  ",
"                     ..XXXXXX..        ....XXXXXXX..                  ",
"                     ..XXXXXX..        ....XXXXXXX..                  ",
"                     ..XXXXXXXX..          .......                    ",
"                       ..XXXXXX..                                     ",
"                       ..XXXXXX..                                     ",
"                       ..XXXXXX..                                     ",
"                       ..XXXXXX..                                     ",
"                       ..XXXXXX..                                     ",
"                       ..XXXXXX..                                     ",
"                       ..XXXXXX..                                     ",
"                       ..XXXXXX..                                     ",
"                       ..XXXXXX..                                     ",
"                       ..XXXXXX..                                     ",
"                         ......                                       ",
"                         ......                                       "
};
