/* XPM */
static char *d8db80bd169643c2f531c4ac81c86aa4iHbYEnmb1y8B906i[] = {
/* columns rows colors chars-per-pixel */
"70 58 6 1 ",
"  c None",
". c #000000",
"X c #0070EC",
"o c #00E8D8",
"O c #FCD8A8",
"+ c gray99",
/* pixels */
"                               .......                                ",
"                               .......                                ",
"                               .......                                ",
"                            ...ooooo.......                           ",
"                            ...ooooo.......                           ",
"                          ..ooooo...XXXXXXX..                         ",
"                          ..ooooo...XXXXXXX..                         ",
"                          ..ooooo...XXXXXXX..                         ",
"                        .........XXXXXXXXXXXX...                      ",
"                        .........XXXXXXXXXXXX...                      ",
"                     ...XXooooo..XXXXXXXXXXXX...                      ",
"                     ...XXooooo..XXXXXXXXXXXX...                      ",
"                     ...XX.....XXXXXXXXXXXXXXooo..                    ",
"                     ...XX.....XXXXXXXXXXXXXXooo..                    ",
"                     ...XX.....XXXXXXXXXXXXXXooo..                    ",
"                     ...++XXXXX+++++++OOXXXXXooo..                    ",
"                     ...++XXXXX+++++++OOXXXXXooo..                    ",
"                     ...++..OOO.....++++OOOXXooo..                    ",
"                     ...++..OOO.....++++OOOXXooo..                    ",
"                     ...++..OOO.....++++OOOXXooo..                    ",
"                     ...++..OOO.....++++OOOXX...                      ",
"                     ...++..OOO.....++++OOOXX...                      ",
"                     ...OO++OOO+++++++OOOOOXX.....                    ",
"                     ...OO++OOO+++++++OOOOOXX.....                    ",
"                   .......OO..........OOXXX..ooooo.....               ",
"                   .......OO..........OOXXX..ooooo.....               ",
"                   .......OO..........OOXXX..ooooo.....               ",
"                ...XXooooo..OOOOOOOOOOOO...oooooooooXXX..             ",
"                ...XXooooo..OOOOOOOOOOOO...oooooooooXXX..             ",
"                ...XXXXXoooo............ooooooooooXXXXX..             ",
"                ...XXXXXoooo............ooooooooooXXXXX..             ",
"                ...XXXXXoooo............ooooooooooXXXXX..             ",
"              ..XXXXXXXXoo..ooooooooooooooooo...ooXXXXXXX...          ",
"              ..XXXXXXXXoo..ooooooooooooooooo...ooXXXXXXX...          ",
"              ..XXXXX.......ooooooooooooooooo.......XXXXX...          ",
"              ..XXXXX.......ooooooooooooooooo.......XXXXX...          ",
"              ..XXXXXXXX....ooooooooooooooooo.....XXXXXXX...          ",
"              ..XXXXXXXX....ooooooooooooooooo.....XXXXXXX...          ",
"              ..XXXXXXXX....ooooooooooooooooo.....XXXXXXX...          ",
"              ..XXXXXXXX....XXXXXXXXXXXXXXXXX.....XXXXXXX...          ",
"              ..XXXXXXXX....XXXXXXXXXXXXXXXXX.....XXXXXXX...          ",
"                ........  ..XXXXXXXXXXXXXXXXX...  .......             ",
"                ........  ..XXXXXXXXXXXXXXXXX...  .......             ",
"                ........  ..XXXXXXXXXXXXXXXXX...  .......             ",
"                        ..oooooooXXXXXXXXXXooooo..                    ",
"                        ..oooooooXXXXXXXXXXooooo..                    ",
"                        ..XXoooooooo..oooooooXXXXX..                  ",
"                        ..XXoooooooo..oooooooXXXXX..                  ",
"                        ..XXXXXXX.......oooXXXXXXX.....               ",
"                        ..XXXXXXX.......oooXXXXXXX.....               ",
"                        ..XXXXXXX.......oooXXXXXXX.....               ",
"                   .....XXXXXXXXXXXX..  ...XXXXXXXXXXXX.....          ",
"                   .....XXXXXXXXXXXX..  ...XXXXXXXXXXXX.....          ",
"                ...XXXXXXXXXXXXXXXXX..  ...XXXXXXXXXXXXXXXXX..        ",
"                ...XXXXXXXXXXXXXXXXX..  ...XXXXXXXXXXXXXXXXX..        ",
"                ...XXXXXXXXXXXXXXXXX..  ...XXXXXXXXXXXXXXXXX..        ",
"                ......................  ......................        ",
"                ......................  ......................        "
};
