/* XPM */
static char *result[] = {
/* columns rows colors chars-per-pixel */
"70 58 6 1 ",
"  c #000000",
". c #0070EC",
"X c #00E8D8",
"o c #FCD8A8",
"O c gray99",
"+ c None",
/* pixels */
"+++++++++++++++++++++++++++       ++++++++++++++++++++++++++++++++++++",
"+++++++++++++++++++++++++++       ++++++++++++++++++++++++++++++++++++",
"++++++++++++++++++++++++   XXXXX       +++++++++++++++++++++++++++++++",
"++++++++++++++++++++++++   XXXXX       +++++++++++++++++++++++++++++++",
"++++++++++++++++++++++  XXXXX   .......  +++++++++++++++++++++++++++++",
"++++++++++++++++++++++  XXXXX   .......  +++++++++++++++++++++++++++++",
"++++++++++++++++++++++  XXXXX   .......  +++++++++++++++++++++++++++++",
"+++++++++++++++++++          ............   ++++++++++++++++++++++++++",
"+++++++++++++++++++          ............   ++++++++++++++++++++++++++",
"+++++++++++++++++  ...XXXXX  ............   ++++++++++++++++++++++++++",
"+++++++++++++++++  ...XXXXX  ............   ++++++++++++++++++++++++++",
"+++++++++++++++++  ...XXXXX  ............   ++++++++++++++++++++++++++",
"+++++++++++++++++  ...     ..............XXX  ++++++++++++++++++++++++",
"+++++++++++++++++  ...     ..............XXX  ++++++++++++++++++++++++",
"+++++++++++++++++  OOO.....OOOOOOOooo....XXX  ++++++++++++++++++++++++",
"+++++++++++++++++  OOO.....OOOOOOOooo....XXX  ++++++++++++++++++++++++",
"+++++++++++++++++  OOO.....OOOOOOOooo....XXX  ++++++++++++++++++++++++",
"+++++++++++++++++  OOO  ooo     OOOOOoo..XXX     +++++++++++++++++++++",
"+++++++++++++++++  OOO  ooo     OOOOOoo..XXX     +++++++++++++++++++++",
"+++++++++++++++++  OOO  ooo     OOOOOoo..   XXXXX  +++++++++++++++++++",
"+++++++++++++++++  OOO  ooo     OOOOOoo..   XXXXX  +++++++++++++++++++",
"+++++++++++++++++  oooOOoooOOOOOOOooooo..   XXXXXXX   ++++++++++++++++",
"+++++++++++++++++  oooOOoooOOOOOOOooooo..   XXXXXXX   ++++++++++++++++",
"+++++++++++++++++  oooOOoooOOOOOOOooooo..   XXXXXXX   ++++++++++++++++",
"+++++++++++++++++++   oo          ooo..  XXXXXXXXXXXXX  ++++++++++++++",
"+++++++++++++++++++   oo          ooo..  XXXXXXXXXXXXX  ++++++++++++++",
"++++++++++++++++++++++  ooooooooooooo  XXXXX  XXXXXXXX  ++++++++++++++",
"++++++++++++++++++++++  ooooooooooooo  XXXXX  XXXXXXXX  ++++++++++++++",
"++++++++++++++++++++++  ooooooooooooo  XXXXX  XXXXXXXX  ++++++++++++++",
"++++++++++++++++++++++               XXXX   .......   ++++++++++++++++",
"++++++++++++++++++++++               XXXX   .......   ++++++++++++++++",
"+++++++++++++++++++   ..   XXXXXXXXXX    ..........   ++++++++++++++++",
"+++++++++++++++++++   ..   XXXXXXXXXX    ..........   ++++++++++++++++",
"+++++++++++++++++++   ..   XXXXXXXXXX    ..........   ++++++++++++++++",
"+++++++++++++++++++   .....  XXXXX   ....   .....  +++++++++++++++++++",
"+++++++++++++++++++   .....  XXXXX   ....   .....  +++++++++++++++++++",
"++++++++++++++++++++++          ..   .........   +++++++++++++++++++++",
"++++++++++++++++++++++          ..   .........   +++++++++++++++++++++",
"++++++++++++++++++++++          ..   . .....  ++++++++++++++++++++++++",
"+++++++++++++++++++++++++++  XXX  ...  .....  ++++++++++++++++++++++++",
"+++++++++++++++++++++++++++  XXX  ...  .....  ++++++++++++++++++++++++",
"+++++++++++++++++++++++++++  XXX  XXXXX     ++++++++++++++++++++++++++",
"+++++++++++++++++++++++++++  XXX  XXXXX     ++++++++++++++++++++++++++",
"+++++++++++++++++++++++++++++     XXXXXXX     ++++++++++++++++++++++++",
"+++++++++++++++++++++++++++++     XXXXXXX     ++++++++++++++++++++++++",
"+++++++++++++++++++++++++++++     XXXXXXX     ++++++++++++++++++++++++",
"++++++++++++++++++++++++++++++++  ............   +++++++++++++++++++++",
"++++++++++++++++++++++++++++++++  ............   +++++++++++++++++++++",
"++++++++++++++++++++++++++++++++++   ............  +++++++++++++++++++",
"++++++++++++++++++++++++++++++++++   ............  +++++++++++++++++++",
"++++++++++++++++++++++++++++++++++   ............  +++++++++++++++++++",
"++++++++++++++++++++++++++++++++++       ........  +++++++++++++++++++",
"++++++++++++++++++++++++++++++++++       ........  +++++++++++++++++++",
"++++++++++++++++++++++++++++++++  ............   +++++++++++++++++++++",
"++++++++++++++++++++++++++++++++  ............   +++++++++++++++++++++",
"++++++++++++++++++++++++++++++++  ............   +++++++++++++++++++++",
"++++++++++++++++++++++++++++++++              ++++++++++++++++++++++++",
"++++++++++++++++++++++++++++++++              ++++++++++++++++++++++++"
};
