/* XPM */
static char *c9f1940d33eb43a0cbb4224a9fd6ae2d24ya1vaqG6isw064[] = {
/* columns rows colors chars-per-pixel */
"70 58 6 1 ",
"  c None",
". c #000000",
"X c #0070EC",
"o c #00E8D8",
"O c #FCD8A8",
"+ c gray99",
/* pixels */
"                                   ........                           ",
"                                   ........                           ",
"                                   ........                           ",
"                              ........ooooo...                        ",
"                              ........ooooo...                        ",
"                              ........ooooo...                        ",
"                           ...XXXXXXXX..oooooo..                      ",
"                           ...XXXXXXXX..oooooo..                      ",
"                         ..XXXXXXXXXXXXX...........                   ",
"                         ..XXXXXXXXXXXXX...........                   ",
"                         ..XXXXXXXXXXXXX...........                   ",
"                         ..XXXXXXXXXXXXX...oooooXXX..                 ",
"                         ..XXXXXXXXXXXXX...oooooXXX..                 ",
"                      ...ooXXXXXXXXXXXXXXXX.....XXX..                 ",
"                      ...ooXXXXXXXXXXXXXXXX.....XXX..                 ",
"                      ...ooXXXXXXXXXXXXXXXX.....XXX..                 ",
"                      ...ooXXXXXOOO++++++++XXXXX+++..                 ",
"                      ...ooXXXXXOOO++++++++XXXXX+++..                 ",
"                      ...ooXXXXXOOO++++++++XXXXX+++..                 ",
"                 ........ooXXXOO++++++.....OOO..+++..                 ",
"                 ........ooXXXOO++++++.....OOO..+++..                 ",
"           ......oooooooo..XXXOO++++++.....OOO..+++..                 ",
"           ......oooooooo..XXXOO++++++.....OOO..+++..                 ",
"           ......oooooooo..XXXOO++++++.....OOO..+++..                 ",
"         ..XXXXXXXXoooooooo...OOOOO++++++++OOO++OOO..                 ",
"         ..XXXXXXXXoooooooo...OOOOO++++++++OOO++OOO..                 ",
"         ..XXXXXXXXoooooooo...OOOOO++++++++OOO++OOO..                 ",
"      ...XXXXXXXXXXoooooo..oooooOOO...........OO...                   ",
"      ...XXXXXXXXXXoooooo..oooooOOO...........OO...                   ",
"      ...XXXXXXXX........ooooooooooOOOOOOOOOOO.......                 ",
"      ...XXXXXXXX........ooooooooooOOOOOOOOOOO.......                 ",
"      ...XXXXXXXX........ooooooooooOOOOOOOOOOO.......                 ",
"      ...XXXXXXXX..   ...ooooooooooooo........XXXXXXX...              ",
"      ...XXXXXXXX..   ...ooooooooooooo........XXXXXXX...              ",
"         ........  ...XXXoo...ooooooooXXXXXXXXXXXXXXX...              ",
"         ........  ...XXXoo...ooooooooXXXXXXXXXXXXXXX...              ",
"         ........  ...XXXoo...ooooooooXXXXXXXXXXXXXXX...              ",
"      ...XXXXX........XXXXXooo..ooooooXXXXXXXXXXXXXXX...              ",
"      ...XXXXX........XXXXXooo..ooooooXXXXXXXXXXXXXXX...              ",
"      ...XXXXX........XXXXXooo..ooooooXXXXXXXXXXXXXXX...              ",
"    ..XXXXXXXXXXX..oooXXXXXXXXXX.....................                 ",
"    ..XXXXXXXXXXX..oooXXXXXXXXXX.....................                 ",
" ...XXXXXXXXXXXXXooooooooXXXXXXXXXXoooooooo...                        ",
" ...XXXXXXXXXXXXXooooooooXXXXXXXXXXoooooooo...                        ",
" ...XXXXXXXXXXXXXooooooooXXXXXXXXXXoooooooo...                        ",
" ...XXXXX..XXXXXXoooooooo.......ooooooooXXXXXX..                      ",
" ...XXXXX..XXXXXXoooooooo.......ooooooooXXXXXX..                      ",
" ...XXXXX..XXXXXXoooooooo.......ooooooooXXXXXX..                      ",
"    ..........XXXXXooo...       ...XXXXXXXXXXX..                      ",
"    ..........XXXXXooo...       ...XXXXXXXXXXX..                      ",
"              ........          ...XXXXXXXX........                   ",
"              ........          ...XXXXXXXX........                   ",
"              ........          ...XXXXXXXX........                   ",
"                              ..XXXXXXXXXXXXXXXXXXX..                 ",
"                              ..XXXXXXXXXXXXXXXXXXX..                 ",
"                              .......................                 ",
"                              .......................                 ",
"                              .......................                 "
};
