/* XPM */
static char *result[] = {
/* columns rows colors chars-per-pixel */
"70 58 6 1 ",
"  c #000000",
". c #0070EC",
"X c #00E8D8",
"o c #FCD8A8",
"O c gray99",
"+ c None",
/* pixels */
"++++++++++++++++++++++++++++++++++++++++++++++++++++++++++++++++++++++",
"++++++++++++++++++++++++++++++++++++++++++++++++++++++++++++++++++++++",
"++++++++++++++++++++++++++++++++++++++++++++++++++++++++++++++++++++++",
"++++++++++++++++++++++++++++++++++++++++++++++++++++++++++++++++++++++",
"++++++++++++++++++++++++++++++++      ++++++++++++++++++++++++++++++++",
"++++++++++++++++++++++++++++++++      ++++++++++++++++++++++++++++++++",
"+++++++++++++++++++++++++++++   XXXX       +++++++++++++++++++++++++++",
"+++++++++++++++++++++++++++++   XXXX       +++++++++++++++++++++++++++",
"+++++++++++++++++++++++++++  XXXXX  .......  +++++++++++++++++++++++++",
"+++++++++++++++++++++++++++  XXXXX  .......  +++++++++++++++++++++++++",
"+++++++++++++++++++++++++++  XXXXX  .......  +++++++++++++++++++++++++",
"+++++++++++++++++++++++++         ...........  +++++++++++++++++++++++",
"+++++++++++++++++++++++++         ...........  +++++++++++++++++++++++",
"+++++++++++++++++++++++  ..XXXXX  ...........  +++++++++++++++++++++++",
"+++++++++++++++++++++++  ..XXXXX  ...........  +++++++++++++++++++++++",
"+++++++++++++++++++++++  ..     .............XX   ++++++++++++++++++++",
"+++++++++++++++++++++++  ..     .............XX   ++++++++++++++++++++",
"+++++++++++++++++++++++  OO.....OOOOOOooo....XX       ++++++++++++++++",
"+++++++++++++++++++++++  OO.....OOOOOOooo....XX       ++++++++++++++++",
"+++++++++++++++++++++++  OO.....OOOOOOooo....XX       ++++++++++++++++",
"+++++++++++++++++++++++  OO  ooo    OOOOOoo..XX   XXXX     +++++++++++",
"+++++++++++++++++++++++  OO  ooo    OOOOOoo..XX   XXXX     +++++++++++",
"+++++++         +++++++  OO  ooo    OOOOOoo..  XXXXXXXXXXXX  +++++++++",
"+++++++         +++++++  OO  ooo    OOOOOoo..  XXXXXXXXXXXX  +++++++++",
"++       .......         ooOOoooOOOOOOooooo..  XXXXXXXXXXXX..  +++++++",
"++       .......         ooOOoooOOOOOOooooo..  XXXXXXXXXXXX..  +++++++",
"  XXX  XXXXXXX..  XXXXX    oo         ooo..  XXXXX  XX.......  +++++++",
"  XXX  XXXXXXX..  XXXXX    oo         ooo..  XXXXX  XX.......  +++++++",
"  XXX  XXXXXXX..  XXXXX    oo         ooo..  XXXXX  XX.......  +++++++",
"  ...  .........  XXXXXXXXX  oooooooooooo  XXXX   ..  .......  +++++++",
"  ...  .........  XXXXXXXXX  oooooooooooo  XXXX   ..  .......  +++++++",
"++       .......  XXXXXXXXXXX            XXXX  .....  .....  +++++++++",
"++       .......  XXXXXXXXXXX            XXXX  .....  .....  +++++++++",
"+++++++         ++           XXXXXXXXXXXXXXXX  .........   +++++++++++",
"+++++++         ++           XXXXXXXXXXXXXXXX  .........   +++++++++++",
"+++++++++++++++++++++++++++++   XXXXXXXXXXXXXXX   ....  ++++++++++++++",
"+++++++++++++++++++++++++++++   XXXXXXXXXXXXXXX   ....  ++++++++++++++",
"+++++++++++++++++++++++++++++   XXXXXXXXXXXXXXX   ....  ++++++++++++++",
"++++++++++++++++++++++++++++++++  XXXXXXXXXXX.....    ++++++++++++++++",
"++++++++++++++++++++++++++++++++  XXXXXXXXXXX.....    ++++++++++++++++",
"++++++++++++++++++++++++++++++++  ................  ++++++++++++++++++",
"++++++++++++++++++++++++++++++++  ................  ++++++++++++++++++",
"++++++++++++++++++++++++++++++++  XX..............XX  ++++++++++++++++",
"++++++++++++++++++++++++++++++++  XX..............XX  ++++++++++++++++",
"+++++++++++++++++++++++++++++   XXXXXX.........XXXXXXX  ++++++++++++++",
"+++++++++++++++++++++++++++++   XXXXXX.........XXXXXXX  ++++++++++++++",
"+++++++++++++++++++++++++++++   XXXXXX.........XXXXXXX  ++++++++++++++",
"+++++++++++++++++++++++++++  .....XXXXXXX    XXXXXXXXX..   +++++++++++",
"+++++++++++++++++++++++++++  .....XXXXXXX    XXXXXXXXX..   +++++++++++",
"+++++++++++++++++++++++++++  .........   ++++  XXXXX.......    +++++++",
"+++++++++++++++++++++++++++  .........   ++++  XXXXX.......    +++++++",
"+++++++++++++++++++++++++       ......   ++++++   .............     ++",
"+++++++++++++++++++++++++       ......   ++++++   .............     ++",
"+++++++++++++++++++++++  ................  +++++++  ................  ",
"+++++++++++++++++++++++  ................  +++++++  ................  ",
"+++++++++++++++++++++++  ................  +++++++  ................  ",
"+++++++++++++++++++++++                    +++++++                    ",
"+++++++++++++++++++++++                    +++++++                    "
};
