/* XPM */
static char *a5f32b0dfd604bcd80d7f1c537efa185hLttssCObruihboR[] = {
/* columns rows colors chars-per-pixel */
"70 58 6 1 ",
"  c None",
". c #000000",
"X c #0070EC",
"o c #00E8D8",
"O c #FCD8A8",
"+ c gray99",
/* pixels */
"                                .......                               ",
"                                .......                               ",
"                                .......                               ",
"                           .......ooooo...                            ",
"                           .......ooooo...                            ",
"                         ..XXXXXXX...ooooo..                          ",
"                         ..XXXXXXX...ooooo..                          ",
"                         ..XXXXXXX...ooooo..                          ",
"                      ...XXXXXXXXXXXX.........                        ",
"                      ...XXXXXXXXXXXX.........                        ",
"                      ...XXXXXXXXXXXX..oooooXX...                     ",
"                      ...XXXXXXXXXXXX..oooooXX...                     ",
"                    ..oooXXXXXXXXXXXXXX.....XX...                     ",
"                    ..oooXXXXXXXXXXXXXX.....XX...                     ",
"                    ..oooXXXXXXXXXXXXXX.....XX...                     ",
"                    ..oooXXXXXOO+++++++XXXXX++...                     ",
"                    ..oooXXXXXOO+++++++XXXXX++...                     ",
"                    ..oooXXOOO++++.....OOO..++...                     ",
"                    ..oooXXOOO++++.....OOO..++...                     ",
"                    ..oooXXOOO++++.....OOO..++...                     ",
"                      ...XXOOO++++.....OOO..++...                     ",
"                      ...XXOOO++++.....OOO..++...                     ",
"                    .....XXOOOOO+++++++OOO++OO...                     ",
"                    .....XXOOOOO+++++++OOO++OO...                     ",
"               .....ooooo..XXXOO..........OO.......                   ",
"               .....ooooo..XXXOO..........OO.......                   ",
"               .....ooooo..XXXOO..........OO.......                   ",
"             ..XXXooooooooo...OOOOOOOOOOOO..oooooXX...                ",
"             ..XXXooooooooo...OOOOOOOOOOOO..oooooXX...                ",
"             ..XXXXXoooooooooo............ooooXXXXX...                ",
"             ..XXXXXoooooooooo............ooooXXXXX...                ",
"             ..XXXXXoooooooooo............ooooXXXXX...                ",
"          ...XXXXXXXoo...ooooooooooooooooo..ooXXXXXXXX..              ",
"          ...XXXXXXXoo...ooooooooooooooooo..ooXXXXXXXX..              ",
"          ...XXXXX.......ooooooooooooooooo.......XXXXX..              ",
"          ...XXXXX.......ooooooooooooooooo.......XXXXX..              ",
"          ...XXXXXXX.....ooooooooooooooooo....XXXXXXXX..              ",
"          ...XXXXXXX.....ooooooooooooooooo....XXXXXXXX..              ",
"          ...XXXXXXX.....ooooooooooooooooo....XXXXXXXX..              ",
"          ...XXXXXXX.....XXXXXXXXXXXXXXXXX....XXXXXXXX..              ",
"          ...XXXXXXX.....XXXXXXXXXXXXXXXXX....XXXXXXXX..              ",
"             .......  ...XXXXXXXXXXXXXXXXX..  ........                ",
"             .......  ...XXXXXXXXXXXXXXXXX..  ........                ",
"             .......  ...XXXXXXXXXXXXXXXXX..  ........                ",
"                    ..oooooXXXXXXXXXXooooooo..                        ",
"                    ..oooooXXXXXXXXXXooooooo..                        ",
"                  ..XXXXXooooooo..ooooooooXX..                        ",
"                  ..XXXXXooooooo..ooooooooXX..                        ",
"               .....XXXXXXXooo.......XXXXXXX..                        ",
"               .....XXXXXXXooo.......XXXXXXX..                        ",
"               .....XXXXXXXooo.......XXXXXXX..                        ",
"          .....XXXXXXXXXXXX...  ..XXXXXXXXXXXX.....                   ",
"          .....XXXXXXXXXXXX...  ..XXXXXXXXXXXX.....                   ",
"        ..XXXXXXXXXXXXXXXXX...  ..XXXXXXXXXXXXXXXXX...                ",
"        ..XXXXXXXXXXXXXXXXX...  ..XXXXXXXXXXXXXXXXX...                ",
"        ..XXXXXXXXXXXXXXXXX...  ..XXXXXXXXXXXXXXXXX...                ",
"        ......................  ......................                ",
"        ......................  ......................                "
};
